<svg width="505" height="481" viewBox="0 0 505 481" fill="none" xmlns="http://www.w3.org/2000/svg">
<g clip-path="url(#clip0)">
<path d="M218.528 94.6338V57.5668C207.029 54.9223 196.205 49.9139 186.741 42.8593C177.277 35.8046 169.38 26.8576 163.551 16.5855L163.55 16.5862C160.754 18.6626 157.363 19.7801 153.882 19.7727H124.491C132.334 39.3479 145.127 56.543 161.615 69.6682C178.102 82.7934 197.715 91.397 218.528 94.6338Z" fill="#E6E6E6"/>
<path d="M218.528 55.4425V19.834C218.528 17.2291 218.017 14.6497 217.022 12.2429C216.027 9.83619 214.568 7.64939 212.728 5.80748C210.889 3.96556 208.706 2.50463 206.302 1.50816C203.899 0.511685 201.323 -0.000793508 198.722 9.22212e-07H170.186V3.43844C170.189 5.64375 169.745 7.82669 168.88 9.85487C168.016 11.883 166.749 13.7142 165.156 15.2373C170.794 25.2693 178.448 34.0217 187.634 40.9418C196.82 47.8619 207.34 52.7994 218.528 55.4425Z" fill="#E6E6E6"/>
<path d="M81.263 19.7727H62.8843C58.5594 19.7715 54.4121 18.0499 51.3546 14.9867C48.2971 11.9235 46.5797 7.76955 46.5802 3.43844V7.18978e-08H19.8056C17.2047 -0.000221709 14.6291 0.51265 12.2261 1.50932C9.82306 2.506 7.63961 3.96695 5.80044 5.80875C3.96128 7.65055 2.50243 9.83712 1.50718 12.2436C0.511933 14.6501 -0.000210312 17.2293 1.11517e-05 19.834V461.18C-0.00275137 463.784 0.507769 466.364 1.50228 468.771C2.4968 471.178 3.95578 473.365 5.79563 475.206C7.63548 477.047 9.82004 478.507 12.2241 479.501C14.6282 480.495 17.2046 481.005 19.8056 481H198.722C199.538 481.002 200.354 480.952 201.163 480.85C205.953 480.252 210.361 477.924 213.558 474.302C216.755 470.68 218.523 466.014 218.528 461.18V136.283C153.455 128.732 99.2333 82.2357 81.263 19.7727Z" fill="#E6E6E6"/>
<path d="M122.261 19.7727H83.4111C101.293 81.0782 154.583 126.69 218.528 134.207V96.7445C197.159 93.4726 177.022 84.6418 160.129 71.1346C143.235 57.6273 130.178 39.9168 122.261 19.7727Z" fill="#E6E6E6"/>
<path d="M17.2443 164.644C16.5232 164.645 15.8319 164.932 15.3221 165.443C14.8122 165.953 14.5254 166.646 14.5247 167.368V212.97C14.5254 213.692 14.8122 214.384 15.322 214.895C15.8319 215.406 16.5232 215.693 17.2443 215.694H200.818C201.539 215.693 202.231 215.406 202.741 214.895C203.25 214.384 203.537 213.692 203.538 212.97V167.368C203.537 166.646 203.25 165.953 202.741 165.443C202.231 164.932 201.539 164.645 200.818 164.644H17.2443Z" fill="white"/>
<path d="M41.0409 204.467C48.9264 204.467 55.3188 198.066 55.3188 190.169C55.3188 182.272 48.9264 175.87 41.0409 175.87C33.1554 175.87 26.7629 182.272 26.7629 190.169C26.7629 198.066 33.1554 204.467 41.0409 204.467Z" fill="#3F3D56"/>
<path d="M74.0164 180.637C73.3853 180.637 72.78 180.888 72.3337 181.335C71.8874 181.781 71.6367 182.388 71.6367 183.02C71.6367 183.652 71.8874 184.258 72.3337 184.705C72.78 185.152 73.3853 185.403 74.0164 185.403H186.201C186.832 185.403 187.437 185.152 187.883 184.705C188.33 184.258 188.58 183.652 188.58 183.02C188.58 182.388 188.33 181.781 187.883 181.335C187.437 180.888 186.832 180.637 186.201 180.637H74.0164Z" fill="#E6E6E6"/>
<path d="M74.0164 194.935C73.3853 194.935 72.78 195.186 72.3337 195.633C71.8874 196.08 71.6367 196.686 71.6367 197.318C71.6367 197.95 71.8874 198.556 72.3337 199.003C72.78 199.45 73.3853 199.701 74.0164 199.701H186.201C186.832 199.701 187.437 199.45 187.883 199.003C188.33 198.556 188.58 197.95 188.58 197.318C188.58 196.686 188.33 196.08 187.883 195.633C187.437 195.186 186.832 194.935 186.201 194.935H74.0164Z" fill="#E6E6E6"/>
<path d="M17.2443 242.945C16.5232 242.946 15.8319 243.233 15.3221 243.744C14.8122 244.254 14.5254 244.947 14.5247 245.669V291.271C14.5254 291.993 14.8122 292.685 15.322 293.196C15.8319 293.707 16.5232 293.994 17.2443 293.995H200.818C201.539 293.994 202.231 293.707 202.741 293.196C203.25 292.685 203.537 291.993 203.538 291.271V245.669C203.537 244.947 203.25 244.254 202.741 243.744C202.231 243.233 201.539 242.946 200.818 242.945H17.2443Z" fill="white"/>
<path d="M41.0409 282.768C48.9264 282.768 55.3188 276.367 55.3188 268.47C55.3188 260.573 48.9264 254.171 41.0409 254.171C33.1554 254.171 26.7629 260.573 26.7629 268.47C26.7629 276.367 33.1554 282.768 41.0409 282.768Z" fill="#3F3D56"/>
<path d="M74.0164 258.938C73.3853 258.938 72.78 259.189 72.3337 259.636C71.8874 260.083 71.6367 260.689 71.6367 261.321C71.6367 261.953 71.8874 262.559 72.3337 263.006C72.78 263.453 73.3853 263.704 74.0164 263.704H186.201C186.832 263.704 187.437 263.453 187.883 263.006C188.33 262.559 188.58 261.953 188.58 261.321C188.58 260.689 188.33 260.083 187.883 259.636C187.437 259.189 186.832 258.938 186.201 258.938H74.0164Z" fill="#E6E6E6"/>
<path d="M74.0164 273.236C73.3853 273.236 72.78 273.487 72.3337 273.934C71.8874 274.381 71.6367 274.987 71.6367 275.619C71.6367 276.251 71.8874 276.857 72.3337 277.304C72.78 277.751 73.3853 278.002 74.0164 278.002H186.201C186.832 278.002 187.437 277.751 187.883 277.304C188.33 276.857 188.58 276.251 188.58 275.619C188.58 274.987 188.33 274.381 187.883 273.934C187.437 273.487 186.832 273.236 186.201 273.236H74.0164Z" fill="#E6E6E6"/>
<path d="M17.2443 321.246C16.5232 321.247 15.8319 321.534 15.3221 322.045C14.8122 322.555 14.5254 323.248 14.5247 323.97V369.572C14.5254 370.294 14.8122 370.987 15.322 371.497C15.8319 372.008 16.5232 372.295 17.2443 372.296H200.818C201.539 372.295 202.231 372.008 202.741 371.497C203.25 370.987 203.537 370.294 203.538 369.572V323.97C203.537 323.248 203.25 322.555 202.741 322.045C202.231 321.534 201.539 321.247 200.818 321.246H17.2443Z" fill="white"/>
<path d="M41.0409 361.069C48.9264 361.069 55.3188 354.668 55.3188 346.771C55.3188 338.874 48.9264 332.473 41.0409 332.473C33.1554 332.473 26.7629 338.874 26.7629 346.771C26.7629 354.668 33.1554 361.069 41.0409 361.069Z" fill="#3F3D56"/>
<path d="M74.0164 337.239C73.3853 337.239 72.78 337.49 72.3337 337.937C71.8874 338.384 71.6367 338.99 71.6367 339.622C71.6367 340.254 71.8874 340.86 72.3337 341.307C72.78 341.754 73.3853 342.005 74.0164 342.005H186.201C186.832 342.005 187.437 341.754 187.883 341.307C188.33 340.86 188.58 340.254 188.58 339.622C188.58 338.99 188.33 338.384 187.883 337.937C187.437 337.49 186.832 337.239 186.201 337.239H74.0164Z" fill="#E6E6E6"/>
<path d="M74.0164 351.537C73.3853 351.537 72.78 351.788 72.3337 352.235C71.8874 352.682 71.6367 353.288 71.6367 353.92C71.6367 354.552 71.8874 355.158 72.3337 355.605C72.78 356.052 73.3853 356.303 74.0164 356.303H186.201C186.832 356.303 187.437 356.052 187.883 355.605C188.33 355.158 188.58 354.552 188.58 353.92C188.58 353.288 188.33 352.682 187.883 352.235C187.437 351.788 186.832 351.537 186.201 351.537H74.0164Z" fill="#E6E6E6"/>
<path d="M109.031 464.563C127.806 464.563 143.026 449.321 143.026 430.519C143.026 411.717 127.806 396.475 109.031 396.475C90.2563 396.475 75.0361 411.717 75.0361 430.519C75.0361 449.321 90.2563 464.563 109.031 464.563Z" fill="white"/>
<path d="M129.428 430.519H111.071V412.135H106.991V430.519H88.6338V434.604H106.991V452.988H111.071V434.604H129.428V430.519Z" fill="white"/>
<path d="M431.436 441.343L430.349 449.351C430.349 449.351 402.709 458.813 408.11 463.146C413.511 467.479 457.183 467.684 458.093 465.217C459.002 462.75 459.204 452.078 456.741 451.167C454.277 450.256 449.723 441.096 449.723 441.096L431.436 441.343Z" fill="#2F2E41"/>
<path d="M403.547 276.943L420.878 384.801L428.925 448.648L454.922 447.408L446.257 341.41L423.973 281.283L403.547 276.943Z" fill="#2F2E41"/>
<path d="M384.977 276.944L382.502 286.862C382.502 286.862 373.217 312.896 381.264 311.656C389.31 310.417 393.024 288.101 393.024 288.101L394.262 280.043L384.977 276.944Z" fill="#FFB6B6"/>
<path d="M465.445 273.224L446.257 358.147L422.735 457.946L400.452 449.888L416.546 369.304C416.546 369.304 414.07 351.948 416.546 343.27C419.022 334.592 419.022 296.779 419.022 296.779L400.452 280.663V249.686L449.352 245.33L465.445 273.224Z" fill="#2F2E41"/>
<path d="M400.397 447.901L399.201 455.894C399.201 455.894 371.434 464.976 376.775 469.383C382.117 473.789 425.782 474.592 426.725 472.138C427.669 469.684 428.017 459.016 425.566 458.071C423.115 457.126 418.686 447.905 418.686 447.905L400.397 447.901Z" fill="#2F2E41"/>
<path d="M390.239 151.42C379.983 151.42 371.669 143.094 371.669 132.824C371.669 122.553 379.983 114.227 390.239 114.227C400.494 114.227 408.808 122.553 408.808 132.824C408.808 143.094 400.494 151.42 390.239 151.42Z" fill="#FFB6B6"/>
<path d="M402.618 130.344L423.664 141.502L415.617 167.536H406.951L401.999 161.338L403.856 157.619L389.001 146.46L402.618 130.344Z" fill="#FFB6B6"/>
<path d="M409.427 165.057L409.737 154.829L418.191 138.6L449.971 151.73L438.829 252.769L400.452 255.248L401.69 212.477L395.5 165.987L397.666 152.659L409.427 165.057Z" fill="white"/>
<path d="M406.951 214.647L421.856 140.115C421.856 140.115 455.851 147.081 458.946 152.04C462.041 156.998 466.373 257.418 466.373 257.418C466.373 257.418 472.563 277.254 466.373 277.254C460.184 277.254 435.424 259.277 434.186 266.096C432.948 272.914 431.71 276.634 423.045 274.774C414.379 272.914 408.808 258.037 408.808 258.037C408.808 258.037 410.665 287.791 406.951 287.791C403.237 287.791 397.666 289.651 397.666 286.552V220.225L382.811 166.297L397.509 152.776L403.856 157.618L406.951 214.647Z" fill="#2F2E41"/>
<path d="M386.834 167.846L382.501 166.607C382.501 166.607 381.263 175.285 381.263 177.144C381.263 179.004 384.977 215.576 384.977 215.576L381.882 278.183L396.119 284.382L400.452 213.717L386.834 167.846Z" fill="#2F2E41"/>
<path d="M408.808 134.683C408.808 134.683 416.236 113.608 399.523 108.649C382.811 103.69 375.383 109.268 372.907 112.368C370.313 115.615 358.052 131.584 365.479 135.303C372.907 139.022 376.312 134.373 376.312 132.514C376.312 130.654 387.453 132.514 392.405 134.373C393.748 134.933 395.226 135.084 396.655 134.808C398.084 134.533 399.4 133.843 400.44 132.824C400.44 132.824 401.69 126.935 405.404 130.034C409.118 133.133 408.808 134.683 408.808 134.683Z" fill="#2F2E41"/>
<path d="M352.414 292.585C352.743 291.942 353.313 291.456 353.999 291.234C354.685 291.012 355.431 291.071 356.073 291.399L396.623 312.15C397.264 312.479 397.75 313.05 397.972 313.737C398.194 314.424 398.135 315.171 397.807 315.814L314.274 479.516C313.945 480.159 313.375 480.645 312.689 480.867C312.003 481.089 311.257 481.03 310.614 480.702L270.065 459.951C269.423 459.622 268.938 459.051 268.716 458.364C268.494 457.677 268.553 456.93 268.881 456.287L352.414 292.585Z" fill="#E6E6E6"/>
<path d="M364.283 339.718C356.397 339.718 350.005 333.317 350.005 325.42C350.005 317.523 356.397 311.122 364.283 311.122C372.168 311.122 378.561 317.523 378.561 325.42C378.561 333.317 372.168 339.718 364.283 339.718Z" fill="white"/>
<path d="M340.801 350.488C341.088 349.925 341.587 349.5 342.187 349.305C342.788 349.111 343.441 349.163 344.003 349.45C344.565 349.738 344.99 350.237 345.184 350.839C345.379 351.44 345.326 352.094 345.039 352.657L293.991 452.697C293.849 452.976 293.653 453.224 293.416 453.427C293.178 453.63 292.902 453.785 292.605 453.881C292.307 453.978 291.994 454.015 291.682 453.99C291.371 453.965 291.067 453.879 290.788 453.736C290.51 453.594 290.262 453.398 290.06 453.159C289.857 452.921 289.703 452.645 289.607 452.347C289.511 452.049 289.474 451.735 289.499 451.423C289.524 451.111 289.611 450.807 289.753 450.528L340.801 350.488Z" fill="white"/>
<path d="M353.515 356.995C353.658 356.716 353.853 356.468 354.091 356.265C354.329 356.062 354.604 355.908 354.902 355.812C355.199 355.715 355.512 355.678 355.824 355.703C356.135 355.728 356.439 355.814 356.717 355.957C356.996 356.099 357.243 356.295 357.446 356.533C357.648 356.772 357.802 357.047 357.899 357.345C357.995 357.643 358.031 357.957 358.007 358.269C357.982 358.581 357.896 358.885 357.754 359.163L306.705 459.203C306.418 459.766 305.92 460.192 305.319 460.386C304.719 460.581 304.066 460.529 303.504 460.241C302.942 459.953 302.517 459.454 302.322 458.853C302.128 458.251 302.18 457.597 302.467 457.035L353.515 356.995Z" fill="white"/>
<path opacity="0.2" d="M446.62 362.795L428.943 443.82L427.437 436.841L446.62 362.795Z" fill="black"/>
<path d="M425.849 289.526C425.737 288.813 425.912 288.084 426.335 287.5C426.759 286.915 427.397 286.523 428.109 286.409L473.083 279.262C473.795 279.15 474.523 279.325 475.107 279.749C475.69 280.174 476.082 280.812 476.196 281.525L504.966 463.091C505.079 463.804 504.904 464.533 504.48 465.117C504.056 465.701 503.418 466.094 502.706 466.208L457.732 473.355C457.02 473.467 456.292 473.292 455.709 472.868C455.125 472.443 454.733 471.805 454.62 471.092L425.849 289.526Z" fill="#E6E6E6"/>
<path d="M454.751 323.36C446.866 323.36 440.473 316.959 440.473 309.062C440.473 301.165 446.866 294.764 454.751 294.764C462.637 294.764 469.029 301.165 469.029 309.062C469.029 316.959 462.637 323.36 454.751 323.36Z" fill="white"/>
<path d="M450.518 343.171C450.469 342.861 450.481 342.545 450.554 342.241C450.626 341.936 450.758 341.649 450.942 341.395C451.125 341.142 451.357 340.927 451.624 340.763C451.89 340.599 452.186 340.49 452.495 340.441C452.804 340.392 453.12 340.404 453.424 340.477C453.728 340.55 454.015 340.683 454.268 340.867C454.521 341.051 454.735 341.283 454.898 341.55C455.061 341.817 455.17 342.114 455.219 342.424L472.801 453.38C472.9 454.004 472.747 454.642 472.376 455.154C472.006 455.665 471.447 456.008 470.824 456.107C470.201 456.206 469.563 456.053 469.053 455.682C468.542 455.311 468.2 454.751 468.101 454.127L450.518 343.171Z" fill="white"/>
<path d="M464.62 340.93C464.571 340.62 464.583 340.305 464.656 340C464.729 339.696 464.861 339.409 465.045 339.156C465.228 338.903 465.46 338.688 465.726 338.525C465.993 338.361 466.289 338.251 466.597 338.202C466.906 338.153 467.221 338.166 467.525 338.239C467.829 338.312 468.116 338.444 468.368 338.628C468.621 338.812 468.836 339.044 468.999 339.31C469.162 339.577 469.272 339.874 469.321 340.183L486.903 451.139C486.952 451.448 486.94 451.764 486.868 452.069C486.795 452.374 486.663 452.661 486.479 452.915C486.296 453.168 486.064 453.383 485.798 453.547C485.531 453.71 485.235 453.82 484.926 453.869C484.617 453.918 484.302 453.906 483.997 453.833C483.693 453.76 483.407 453.627 483.154 453.443C482.901 453.259 482.686 453.027 482.523 452.759C482.36 452.492 482.251 452.196 482.202 451.886L464.62 340.93Z" fill="white"/>
<path d="M445.489 261.283L443.013 271.201C443.013 271.201 433.728 297.236 441.775 295.996C449.822 294.756 453.535 272.441 453.535 272.441L454.773 264.383L445.489 261.283Z" fill="#FFB6B6"/>
<path d="M449.97 153.045L458.637 152.349L484.015 224.874L454.922 275.084L434.496 259.587L456.16 224.254L439.448 179.004L449.97 153.045Z" fill="#2F2E41"/>
</g>
<defs>
<clipPath id="clip0">
<rect width="505" height="481" fill="white" transform="matrix(-1 0 0 1 505 0)"/>
</clipPath>
</defs>
</svg>
